<svg width="40" height="40" viewBox="0 0 40 40" fill="none" xmlns="http://www.w3.org/2000/svg">
<g clip-path="url(#clip0)">
<path d="M29.1663 21.6667C23.193 21.6667 18.333 16.8067 18.333 10.8333C18.333 4.86 23.193 0 29.1663 0C35.1397 0 39.9996 4.86 39.9996 10.8333C39.9996 16.8067 35.1397 21.6667 29.1663 21.6667ZM29.1663 1.66667C24.113 1.66667 19.9997 5.77833 19.9997 10.8333C19.9997 15.8883 24.113 20 29.1663 20C34.2197 20 38.333 15.8883 38.333 10.8333C38.333 5.77833 34.2197 1.66667 29.1663 1.66667Z" fill="black"/>
<path d="M27.5001 15C27.2784 15 27.0668 14.9117 26.9101 14.7567L23.5768 11.4233C23.2518 11.0983 23.2518 10.57 23.5768 10.245C23.9018 9.91999 24.4301 9.91999 24.7551 10.245L27.4584 12.9483L32.7051 6.95165C33.0101 6.60332 33.5351 6.56999 33.8801 6.87332C34.2268 7.17665 34.2618 7.70332 33.9584 8.04999L28.1251 14.7167C27.9751 14.89 27.7584 14.9917 27.5284 15C27.5184 15 27.5101 15 27.5001 15Z" fill="black"/>
<path d="M32.5002 28.3333H10.8335C10.4369 28.3333 10.0952 28.0533 10.0169 27.6633L6.68354 10.9967C6.63354 10.7517 6.69854 10.4983 6.85521 10.305C7.01188 10.1117 7.25188 10 7.50021 10H14.1669C14.6269 10 15.0002 10.3733 15.0002 10.8333C15.0002 11.2933 14.6269 11.6667 14.1669 11.6667H8.51688L11.5169 26.6667H31.8169L32.2785 24.3583C32.3702 23.905 32.8269 23.6167 33.2585 23.705C33.7102 23.795 34.0035 24.2333 33.9135 24.685L33.3185 27.6633C33.2385 28.0533 32.8969 28.3333 32.5002 28.3333Z" fill="black"/>
<path d="M10.8317 28.3333C10.4433 28.3333 10.0967 28.06 10.0167 27.6633L5.885 7.00662C5.65333 5.84162 4.62 4.99662 3.43333 4.99662H3.43167L0.835 4.99996C0.833333 4.99996 0.833333 4.99996 0.833333 4.99996C0.373333 4.99996 0 4.62662 0 4.16662C0 3.70662 0.373333 3.33329 0.831667 3.33329L3.42833 3.32996H3.43333C5.41333 3.32996 7.13167 4.73829 7.52 6.67996L11.65 27.3366C11.7417 27.7883 11.4483 28.2266 10.995 28.3166C10.9417 28.3283 10.8867 28.3333 10.8317 28.3333Z" fill="black"/>
<path d="M35.8333 31.6666H7.5C6.12167 31.6666 5 30.545 5 29.1666C5 27.7883 6.12167 26.6666 7.5 26.6666H10.8333C11.2933 26.6666 11.6667 27.04 11.6667 27.5C11.6667 27.96 11.2933 28.3333 10.8333 28.3333H7.5C7.04167 28.3333 6.66667 28.7066 6.66667 29.1666C6.66667 29.6266 7.04167 30 7.5 30H35.8333C36.2933 30 36.6667 30.3733 36.6667 30.8333C36.6667 31.2933 36.2933 31.6666 35.8333 31.6666Z" fill="black"/>
<path d="M13.3333 40C11.495 40 10 38.505 10 36.6667C10 34.8283 11.495 33.3333 13.3333 33.3333C15.1717 33.3333 16.6667 34.8283 16.6667 36.6667C16.6667 38.505 15.1717 40 13.3333 40ZM13.3333 35C12.4133 35 11.6667 35.7483 11.6667 36.6667C11.6667 37.585 12.4133 38.3333 13.3333 38.3333C14.2533 38.3333 15 37.585 15 36.6667C15 35.7483 14.2533 35 13.3333 35Z" fill="black"/>
<path d="M28.3333 40C26.495 40 25 38.505 25 36.6667C25 34.8283 26.495 33.3333 28.3333 33.3333C30.1717 33.3333 31.6667 34.8283 31.6667 36.6667C31.6667 38.505 30.1717 40 28.3333 40ZM28.3333 35C27.4133 35 26.6667 35.7483 26.6667 36.6667C26.6667 37.585 27.4133 38.3333 28.3333 38.3333C29.2533 38.3333 30 37.585 30 36.6667C30 35.7483 29.2533 35 28.3333 35Z" fill="black"/>
</g>
<defs>
<clipPath id="clip0">
<rect width="40" height="40" fill="white"/>
</clipPath>
</defs>
</svg>
