<svg width="40" height="40" viewBox="0 0 40 40" fill="none" xmlns="http://www.w3.org/2000/svg">
<g clip-path="url(#clip0)">
<path d="M39.9999 6.85968C39.9999 6.8553 39.9993 6.85093 39.9992 6.84648C39.9987 6.82905 39.9977 6.81187 39.9957 6.79483C39.9949 6.78858 39.9937 6.78233 39.9928 6.77608C39.9904 6.76038 39.9875 6.74491 39.9839 6.72976C39.9825 6.72374 39.981 6.7178 39.9793 6.71179C39.9748 6.6953 39.9696 6.67913 39.9637 6.66319C39.9626 6.66015 39.9619 6.65702 39.9607 6.65405L38.3713 2.58515C38.2111 2.17516 37.823 1.91016 37.3828 1.91016H34.4887C34.1732 1.91016 33.9175 2.16586 33.9175 2.48133C33.9175 2.7968 34.1732 3.0525 34.4887 3.0525H37.3275L38.5924 6.2907H26.6335L25.8842 3.0525H30.3008C30.6163 3.0525 30.872 2.7968 30.872 2.48133C30.872 2.16586 30.6163 1.91016 30.3008 1.91016H25.1658H19.4105H7.19346C6.75314 1.91016 6.36518 2.17516 6.20494 2.58531L4.61549 6.65405C4.61432 6.6571 4.6137 6.66023 4.61252 6.66319C4.60659 6.67905 4.60143 6.69523 4.5969 6.71179C4.59526 6.7178 4.5937 6.72374 4.59229 6.72976C4.5887 6.74499 4.58581 6.76046 4.58346 6.77608C4.58252 6.78233 4.58135 6.78858 4.58057 6.79483C4.57862 6.81187 4.57752 6.82905 4.57705 6.84648C4.57698 6.85085 4.57643 6.85523 4.57635 6.85968C4.57635 6.86038 4.57627 6.86108 4.57627 6.86179V15.2532C4.57627 15.5686 4.83198 15.8244 5.14744 15.8244C5.46291 15.8244 5.71862 15.5686 5.71862 15.2532V7.43304H17.8258V16.1149C17.8258 16.4544 18.0258 16.7638 18.3354 16.9031C18.4487 16.9541 18.5695 16.979 18.6894 16.979C18.8969 16.979 19.1021 16.9045 19.263 16.7618L22.2881 14.0819L25.3132 16.7618C25.5672 16.987 25.9314 17.0424 26.241 16.9031C26.5505 16.7637 26.7505 16.4544 26.7505 16.1149V7.43304H38.8576V33.052C38.8576 33.4618 38.5241 33.7953 38.1143 33.7953H27.6414C27.6414 33.7888 27.6406 33.7824 27.6405 33.7759C27.6399 33.7246 27.638 33.6735 27.6337 33.6227C28.617 33.8834 29.6677 33.378 30.0618 32.4116C30.269 31.9032 30.266 31.3446 30.0531 30.8387C30.033 30.791 30.0109 30.7448 29.9876 30.6992C29.9833 30.6909 29.9792 30.6824 29.9749 30.6742C29.952 30.6307 29.9276 30.5883 29.9019 30.547C29.8969 30.5389 29.8918 30.5311 29.8867 30.5231C29.8595 30.4807 29.8313 30.4391 29.8012 30.399C29.8007 30.3982 29.8001 30.3975 29.7995 30.3968C29.7697 30.3572 29.7381 30.3191 29.7055 30.2818C29.6996 30.275 29.6937 30.2682 29.6877 30.2614C29.6554 30.2254 29.6219 30.1907 29.5872 30.1571C29.5804 30.1506 29.5736 30.1442 29.5667 30.1378C29.5304 30.1037 29.4932 30.0705 29.4544 30.0392C29.4531 30.0382 29.4518 30.0371 29.4504 30.0361C29.4123 30.0054 29.3727 29.9764 29.3323 29.9484C29.3251 29.9433 29.3179 29.9382 29.3104 29.9332C29.2701 29.906 29.2287 29.8803 29.1861 29.8558C29.1826 29.8538 29.1794 29.8514 29.1758 29.8494C29.4172 29.6405 29.6078 29.3761 29.7319 29.0719C29.9391 28.5635 29.9361 28.005 29.7232 27.4989C29.5369 27.0562 29.2095 26.7001 28.7901 26.4792C28.7302 26.4476 28.6684 26.4188 28.6049 26.3929L19.7153 22.7682L23.8533 21.4874C24.8377 21.1826 25.3922 20.1326 25.0892 19.1469C24.9762 18.779 24.752 18.4686 24.4625 18.2418C24.0316 17.9043 23.4558 17.7518 22.8847 17.8718C22.8819 17.8724 22.8793 17.8729 22.8766 17.8736C22.8449 17.8807 19.6727 18.594 16.3597 19.24C16.2127 19.2686 16.0695 19.2963 15.9284 19.3235C15.8154 19.3452 15.704 19.3666 15.5947 19.3874C15.5633 19.3934 15.5318 19.3993 15.5006 19.4053C15.3077 19.4419 15.1207 19.477 14.939 19.5107C14.8659 19.5243 14.7934 19.5378 14.722 19.5509C10.5613 20.3174 9.39252 20.3311 9.06814 20.2872C9.06689 20.2871 9.0658 20.2869 9.06455 20.2867C9.05962 20.286 9.05478 20.2853 9.05025 20.2846C9.04697 20.284 9.04392 20.2835 9.04087 20.283C9.03869 20.2826 9.03634 20.2822 9.03423 20.2819C9.014 20.2782 8.99822 20.2744 8.98603 20.2707L8.89244 20.2326L9.00908 19.9466C9.12377 19.6654 9.12205 19.3563 9.00431 19.0764C8.97486 19.0064 8.939 18.9403 8.89744 18.8787C8.77275 18.6941 8.59642 18.5504 8.38549 18.4643L5.31768 17.2135C5.03651 17.0987 4.72737 17.1005 4.44745 17.2183C4.16745 17.336 3.95018 17.5558 3.83549 17.8369L0.0841732 27.0371C-0.152545 27.6177 0.12722 28.2825 0.707766 28.5193L3.77565 29.7703C3.91573 29.8274 4.06065 29.8544 4.20338 29.8544C4.65206 29.8544 5.07815 29.5871 5.25776 29.1467L5.28596 29.0775L5.9933 29.3659C5.99369 29.366 5.99408 29.3663 5.99455 29.3664C6.67111 29.6423 7.29447 30.0359 7.834 30.5243C7.93213 30.6132 8.02744 30.7051 8.11986 30.8C8.21228 30.8949 8.30166 30.9929 8.38799 31.0937C8.43111 31.1441 8.47353 31.1953 8.51502 31.2471C9.30119 32.2274 10.3318 32.9963 11.4953 33.4708L12.2911 33.7953H6.46205C6.05221 33.7953 5.71869 33.4617 5.71869 33.0519V31.6067C5.71869 31.2912 5.46299 31.0355 5.14752 31.0355C4.83205 31.0355 4.57635 31.2912 4.57635 31.6067V33.0519C4.57635 34.0917 5.42221 34.9376 6.46205 34.9376H15.0927L22.4506 37.9377C22.7039 38.041 22.9659 38.09 23.224 38.0899C24.0348 38.0899 24.805 37.6067 25.1296 36.8107C25.2627 36.4842 25.3055 36.143 25.2696 35.8149C25.6523 35.8699 26.0491 35.8195 26.4088 35.6642C26.7744 35.5063 27.0773 35.2548 27.2925 34.9375H38.1143C39.1541 34.9375 40 34.0917 40 33.0518V6.86187C40 6.86108 39.9999 6.86046 39.9999 6.85968ZM19.8646 3.0525H24.7116L25.4609 6.2907H19.1153L19.8646 3.0525ZM17.9428 6.2907H5.98385L7.24877 3.0525H18.6921L17.9428 6.2907ZM25.6083 15.497H25.6083L22.8612 13.0634C22.6979 12.9187 22.493 12.8464 22.2883 12.8464C22.0834 12.8464 21.8785 12.9187 21.7151 13.0634L18.9682 15.497V7.43304H25.6083V15.497ZM4.20198 28.7104L1.14394 27.4635L4.89127 18.2733L7.94931 19.5203L4.20198 28.7104ZM27.0211 32.1574L26.3655 31.89C26.3652 31.8899 26.3649 31.8898 26.3646 31.8896C26.3644 31.8896 26.3641 31.8894 26.3639 31.8893C26.3638 31.8893 26.3637 31.8892 26.3637 31.8892L19.5366 29.1056C19.2446 28.9865 18.9112 29.1267 18.7921 29.4189C18.673 29.711 18.8132 30.0443 19.1054 30.1635L25.9326 32.9472C25.9611 32.9588 25.9887 32.9717 26.0153 32.9859C26.0228 32.9899 26.0297 32.9947 26.0371 32.9988C26.0558 33.0095 26.0747 33.0201 26.0924 33.0319C26.1009 33.0376 26.1087 33.0442 26.117 33.0501C26.1327 33.0613 26.1487 33.0724 26.1636 33.0846C26.1726 33.092 26.1807 33.1002 26.1894 33.1078C26.2026 33.1196 26.2162 33.131 26.2287 33.1435C26.2374 33.1521 26.2451 33.1616 26.2534 33.1705C26.2649 33.1828 26.2767 33.1949 26.2875 33.2079C26.2957 33.2178 26.3029 33.2284 26.3107 33.2386C26.3205 33.2514 26.3306 33.264 26.3396 33.2773C26.3472 33.2884 26.3537 33.3001 26.3607 33.3114C26.3688 33.3246 26.3774 33.3374 26.3848 33.351C26.3915 33.3631 26.3972 33.3759 26.4033 33.3883C26.4099 33.4017 26.417 33.4148 26.423 33.4285C26.4287 33.4416 26.4333 33.4552 26.4383 33.4685C26.4435 33.4821 26.4491 33.4953 26.4537 33.5091C26.4582 33.5229 26.4616 33.5371 26.4655 33.551C26.4693 33.5649 26.4736 33.5785 26.4768 33.5924C26.48 33.6066 26.482 33.621 26.4846 33.6352C26.4872 33.6494 26.4901 33.6635 26.492 33.6778C26.4939 33.6922 26.4946 33.7067 26.4958 33.7212C26.4969 33.7357 26.4987 33.7502 26.4991 33.7647C26.4996 33.779 26.4989 33.7935 26.4987 33.8078C26.4986 33.8227 26.4988 33.8375 26.4979 33.8524C26.497 33.8666 26.4949 33.8807 26.4933 33.8949C26.4917 33.9101 26.4904 33.9253 26.488 33.9405C26.4857 33.9544 26.4822 33.9682 26.4793 33.9821C26.476 33.9975 26.4733 34.0129 26.4691 34.0282C26.4655 34.0417 26.4607 34.0552 26.4564 34.0686C26.4515 34.0839 26.4471 34.0992 26.4414 34.1143C26.4365 34.1247 26.4318 34.1352 26.4273 34.1457C26.4263 34.1481 26.4258 34.1506 26.4248 34.153C26.3356 34.359 26.1709 34.5227 25.9558 34.6156C25.7191 34.7177 25.4481 34.7213 25.2122 34.625L24.0026 34.1318C23.9969 34.1296 23.9912 34.128 23.9856 34.1259C23.9799 34.1233 23.9745 34.1203 23.9687 34.118L18.4159 31.8539C18.1237 31.7348 17.7905 31.8749 17.6714 32.1671C17.5523 32.4592 17.6925 32.7926 17.9846 32.9117L23.5374 35.1759C23.5433 35.1783 23.5494 35.18 23.5554 35.1822C23.5608 35.1845 23.5658 35.1874 23.5713 35.1896C24.0373 35.3797 24.2619 35.9135 24.0719 36.3795C23.8819 36.8456 23.3483 37.0703 22.8821 36.8801L15.4216 33.8381C15.4213 33.8379 15.4209 33.8378 15.4206 33.8376L11.9269 32.413C11.3119 32.1622 10.7408 31.8142 10.2367 31.386C9.93415 31.129 9.6558 30.8433 9.40642 30.5324C9.16072 30.226 8.89119 29.9403 8.60119 29.6778C7.96314 29.1002 7.22603 28.6348 6.42611 28.3085C6.42604 28.3085 6.42596 28.3085 6.42588 28.3085L5.7176 28.0197L7.1283 24.56L8.46142 21.2905L8.55978 21.3306C8.65236 21.3683 8.78439 21.4219 9.1397 21.4354C9.58361 21.4554 10.318 21.4091 11.6336 21.2232C12.5285 21.0968 13.6263 20.914 14.9077 20.6782C14.9393 20.6725 14.9706 20.6667 15.0025 20.6608C15.0624 20.6497 15.123 20.6385 15.1838 20.6272C15.231 20.6185 15.2785 20.6096 15.3264 20.6006C15.3809 20.5904 15.4357 20.5801 15.4909 20.5697C15.5494 20.5587 15.6086 20.5475 15.6681 20.5362C15.7158 20.5272 15.7634 20.5182 15.8115 20.509C15.8841 20.4952 15.9579 20.4811 16.032 20.4668C16.0701 20.4595 16.1078 20.4523 16.1463 20.445C16.2597 20.4231 16.3746 20.4009 16.4916 20.3782C19.7933 19.736 22.98 19.0212 23.1232 18.989C23.1375 18.9861 23.1518 18.9843 23.1661 18.9822C23.533 18.9279 23.8924 19.1401 23.9976 19.4825C24.0346 19.6028 24.0389 19.7255 24.0156 19.841C23.9644 20.0951 23.7798 20.3144 23.5158 20.3961L17.8531 22.1487C17.6226 22.2201 17.4618 22.4285 17.4514 22.6696C17.4409 22.9106 17.583 23.1322 17.8064 23.2233L28.1739 27.4507C28.3997 27.5428 28.5761 27.7172 28.6706 27.942C28.7651 28.1667 28.7665 28.4149 28.6744 28.6406C28.5823 28.8664 28.4079 29.0428 28.1832 29.1373C28.0708 29.1845 27.9526 29.2084 27.8343 29.2091C27.8326 29.2091 27.8308 29.2089 27.8291 29.2089C27.8013 29.2089 27.7736 29.2078 27.7458 29.2052C27.7376 29.2044 27.7295 29.2027 27.7213 29.2017C27.7001 29.1992 27.679 29.1967 27.6579 29.1927C27.6447 29.1901 27.6315 29.1862 27.6183 29.1831C27.6026 29.1793 27.5867 29.1761 27.5711 29.1715C27.5549 29.1667 27.539 29.1604 27.5231 29.1547C27.5104 29.1502 27.4976 29.1464 27.4851 29.1414L20.6573 26.3573C20.3652 26.2382 20.0319 26.3784 19.9127 26.6706C19.7936 26.9627 19.9338 27.296 20.226 27.4152L28.5037 30.7904C28.5602 30.8134 28.6136 30.8416 28.6633 30.8744C28.8126 30.9728 28.9296 31.1131 29.0004 31.2817C29.0832 31.4783 29.0946 31.6928 29.0344 31.8946C29.0258 31.9235 29.0158 31.9521 29.0043 31.9803C28.9924 32.0094 28.9792 32.0376 28.9647 32.0648C28.9311 32.1281 28.8901 32.1853 28.8443 32.2374C28.8158 32.2697 28.7854 32.2999 28.7531 32.3275C28.7479 32.3319 28.7433 32.3369 28.738 32.3411C28.5296 32.5116 28.2509 32.5849 27.9787 32.5299C27.9234 32.5187 27.8685 32.5028 27.8144 32.4808L27.0211 32.1574Z" fill="black"/>
</g>
<defs>
<clipPath id="clip0">
<rect width="40" height="40" fill="white"/>
</clipPath>
</defs>
</svg>
