<svg width="40" height="40" viewBox="0 0 40 40" fill="none" xmlns="http://www.w3.org/2000/svg">
<g clip-path="url(#clip0)">
<path d="M3.19066 22.0917C2.61012 21.5111 2.61012 20.5666 3.19066 19.9863L17.3574 5.81957C17.5833 5.59374 17.5833 5.2276 17.3574 5.00207C17.1316 4.77593 16.7655 4.77624 16.5399 5.00207L2.37285 19.1688C1.34186 20.1998 1.34186 21.8779 2.37285 22.9092L5.94127 26.4773C6.05388 26.5899 6.20203 26.6465 6.34987 26.6465C6.49801 26.6465 6.64586 26.5902 6.75877 26.4773C6.9846 26.2515 6.9846 25.8853 6.75877 25.6598L3.19066 22.0917Z" fill="black"/>
<path d="M14.5554 12.0467L5.80707 20.7951C5.58124 21.0209 5.58124 21.387 5.80707 21.6129C5.91998 21.7255 6.06783 21.7821 6.21597 21.7821C6.36381 21.7821 6.51166 21.7258 6.62457 21.6129L15.3729 12.8645C15.5988 12.6387 15.5988 12.2725 15.3729 12.0467C15.1474 11.8212 14.7813 11.8212 14.5554 12.0467Z" fill="black"/>
<path d="M19.8458 11.1224C20.445 11.1224 21.0442 10.8945 21.5003 10.4383L23.2504 8.68825C24.1627 7.7759 24.1627 6.29144 23.2504 5.37909C22.338 4.46674 20.8536 4.46674 19.9412 5.37909L18.1912 7.12912C17.7492 7.57115 17.5059 8.15861 17.5059 8.78371C17.5059 9.4085 17.7492 9.99626 18.1912 10.4383C18.6474 10.8945 19.2466 11.1224 19.8458 11.1224ZM19.0087 7.94663L20.7587 6.19659C21.2203 5.735 21.9713 5.735 22.4326 6.19659C22.8942 6.65819 22.8942 7.40915 22.4326 7.87045L20.6825 9.62048C20.2212 10.0821 19.4703 10.0821 19.0087 9.62048C18.7853 9.39706 18.6621 9.09987 18.6621 8.78371C18.6621 8.46754 18.7853 8.17005 19.0087 7.94663Z" fill="black"/>
<path d="M35.7617 19.8466H30.1966L34.4844 15.5589C35.5157 14.5276 35.5157 12.8495 34.4844 11.8182L23.9739 1.30807C23.4744 0.808537 22.8102 0.533325 22.1038 0.533325C21.3974 0.533325 20.7331 0.808537 20.2333 1.30807L18.1737 3.36764C17.9482 3.59347 17.9482 3.95932 18.1737 4.18515C18.3995 4.41098 18.7657 4.41098 18.9912 4.18515L21.0511 2.12558C21.332 1.84434 21.706 1.68958 22.1038 1.68958C22.5012 1.68958 22.8752 1.84434 23.1564 2.12558L33.6666 12.6357C34.2471 13.2162 34.2471 14.1605 33.6666 14.741L28.5613 19.8463H13.9513L18.1535 15.6441C18.3794 15.4185 18.3794 15.0524 18.1535 14.8266C17.9277 14.6007 17.5616 14.6007 17.336 14.8266L12.3163 19.8466H10.5033C9.04476 19.8466 7.8584 21.033 7.8584 22.4912V37.3551C7.8584 38.8133 9.04476 40 10.5033 40H35.7617C37.2202 40 38.4066 38.8133 38.4066 37.3551V35.2184C38.4066 34.8989 38.1479 34.6403 37.8285 34.6403C37.5093 34.6403 37.2503 34.8989 37.2503 35.2184V37.3551C37.2503 38.1759 36.5828 38.8437 35.7617 38.8437H10.5033C9.6825 38.8437 9.01465 38.1759 9.01465 37.3551V29.243H37.2503V32.9059C37.2503 33.2251 37.509 33.484 37.8285 33.484C38.1479 33.484 38.4066 33.2251 38.4066 32.9059V22.4915C38.4066 21.033 37.2202 19.8466 35.7617 19.8466ZM10.5033 21.0029H35.7617C36.5825 21.0029 37.2503 21.6707 37.2503 22.4915V24.5162H9.01465V22.4915C9.01465 21.6707 9.6825 21.0029 10.5033 21.0029ZM9.01465 28.0867V25.6724H37.2503V28.0867H9.01465Z" fill="black"/>
<path d="M30.9128 33.4841C30.4241 33.4841 30.0264 33.8818 30.0264 34.3705V36.5728C30.0264 37.0618 30.4241 37.4593 30.9128 37.4593H34.4159C34.9046 37.4593 35.3024 37.0618 35.3024 36.5728V34.3705C35.3024 33.8818 34.9046 33.4841 34.4159 33.4841H30.9128ZM34.1461 36.303H31.1826V34.6403H34.1461V36.303Z" fill="black"/>
<path d="M20.3513 33.4841C19.8626 33.4841 19.4648 33.8818 19.4648 34.3705V36.5728C19.4648 37.0618 19.8626 37.4593 20.3513 37.4593H27.7606C28.2493 37.4593 28.6471 37.0618 28.6471 36.5728V34.3705C28.6471 33.8818 28.2493 33.4841 27.7606 33.4841H20.3513ZM27.4908 36.303H20.6211V34.6403H27.4908V36.303Z" fill="black"/>
<path d="M13.3311 36.303C13.0119 36.303 12.7529 36.5619 12.7529 36.8811C12.7529 37.2006 13.0119 37.4592 13.3311 37.4592H17.0226C17.3418 37.4592 17.6007 37.2006 17.6007 36.8811C17.6007 36.5619 17.3418 36.303 17.0226 36.303H13.3311Z" fill="black"/>
</g>
<defs>
<clipPath id="clip0">
<rect width="40" height="40" fill="white"/>
</clipPath>
</defs>
</svg>
