<svg id="Capa_1" enable-background="new 0 0 511.979 511.979" height="512" viewBox="0 0 511.979 511.979" width="512" xmlns="http://www.w3.org/2000/svg"><g><path d="m498.819 166.33-153.171-153.171c-17.546-17.546-46.096-17.544-63.64 0l-192.201 192.202h-44.807c-24.813 0-45 20.187-45 45v216.617c0 24.813 20.187 45 45 45h344.62c24.813 0 45-20.187 45-45v-172.81l64.199-64.199c17.546-17.545 17.546-46.093 0-63.639zm-195.597-131.958c2.925-2.924 6.766-4.387 10.607-4.387s7.682 1.463 10.606 4.387l78.925 78.925-92.064 92.064h-179.064zm101.398 432.606c0 8.271-6.729 15-15 15h-344.62c-8.271 0-15-6.729-15-15v-216.617c0-8.271 6.729-15 15-15h344.62c8.271 0 15 6.729 15 15zm-8.896-261.192c-1.998-.272-4.033-.425-6.104-.425h-35.898l70.851-70.852 21.214 21.214zm81.882 2.971-42.986 42.986v-1.382c0-11.402-4.271-21.821-11.286-29.759l43.666-43.666 10.606 10.606c5.849 5.849 5.849 15.366 0 21.215z"/><path d="m60 406.574h55.819v30h-55.819z"/><path d="m146.267 406.574h55.819v30h-55.819z"/><path d="m232.534 406.574h55.82v30h-55.82z"/><path d="m318.801 406.574h55.819v30h-55.819z"/><path d="m161.267 280.766h-101.267v90h101.267zm-30 60h-41.267v-30h41.267z"/></g></svg>