<svg id="Layer_1" data-name="Layer 1" xmlns="http://www.w3.org/2000/svg" viewBox="0 0 111.6 122.88"><title>document-give</title><path d="M75.91,5.22l-22,.55L64.65,16.48,75.91,5.22ZM22.44,71a2,2,0,0,1-.09-.37c-.18-1.57-.35-3.29-.51-4.8L13.89,57.9c-.21.43-.41.87-.59,1.33A21.58,21.58,0,0,0,12,64.15a2.25,2.25,0,0,0,0,.22L7.31,90.88a2,2,0,0,1-.42.91A13.92,13.92,0,0,0,4,97a2.53,2.53,0,0,0,.69,2.51l17.2,17.19a7.25,7.25,0,0,0,3.88,2,13,13,0,0,0,5.81-.46h.12c.85-.23,1.95-.5,3-.77,4.61-1.12,8.62-2.1,12.35-5.49l4.79-5a1.37,1.37,0,0,1,.19-.23l1.17-1.14c3.27-3.21,7.34-7.16,4.87-10.63L56.2,93c-.93.91-1.92,1.78-2.86,2.62s-1.68,1.47-2.42,2.22A2,2,0,0,1,48.07,95c.75-.75,1.65-1.55,2.6-2.39,3.26-2.86,7-6.14,5-9l-1.9-1.91a2.3,2.3,0,0,1-.28-.34c-1.09,1.12-2.28,2.19-3.46,3.23-.87.76-1.68,1.46-2.42,2.21a2,2,0,1,1-2.86-2.87c.75-.75,1.66-1.55,2.61-2.39,3.25-2.86,7-6.14,5-9l-1.92-1.92a2.3,2.3,0,0,1-.34-.43l-5.57,5.58a2,2,0,0,1-2.86,0,2,2,0,0,1,0-2.86l8-8c2.51-2.5,3.08-5.11,2.42-7.08a4.64,4.64,0,0,0-3-3c-1.94-.64-4.54,0-7.11,2.52L22.68,76.55a2,2,0,1,1-2.86-2.86L22.49,71l0,0ZM53.27,67.7l2,2a2.84,2.84,0,0,1,.3.37,6.82,6.82,0,0,1,.37,8.26,2.26,2.26,0,0,1,.75.47l.54.54,49.1-49.1L82.19,6.1,66.45,21.84a2.54,2.54,0,0,1-3.6,0L48,7h0L9.06,45.89,28.33,65.16,39.06,54.43c3.82-3.83,7.94-4.58,11.26-3.5a8.52,8.52,0,0,1,3.46,2.14,8.66,8.66,0,0,1,2.14,3.47c1.09,3.3.34,7.49-3.41,11.24-1.07,1.07,0-.9.76-.08Zm6.94,15.8A7,7,0,0,1,59,90a2,2,0,0,1,.24.21l2,2a2.69,2.69,0,0,1,.3.37c4.61,6.31-.88,11.66-5.29,16l-1.13,1.14-4.92,5.16-.15.14c-4.51,4.09-9,5.19-14.13,6.45-.87.2-1.74.43-3,.75h-.08a17.28,17.28,0,0,1-7.6.54,11.32,11.32,0,0,1-6-3.09L2,102.36a6.33,6.33,0,0,1-1.84-6.2,16,16,0,0,1,3.31-6.48l4.6-26v-.11a27.52,27.52,0,0,1,1.49-5.8A17.57,17.57,0,0,1,11,55L5.1,49.09a4.59,4.59,0,0,1-1.33-3.2,4.53,4.53,0,0,1,1.34-3.21L46.54,1.25a4,4,0,0,1,3-1.24H81.93a2.52,2.52,0,0,1,2,.72L110.27,27a4.53,4.53,0,0,1,0,6.41L60.21,83.5ZM26.77,69.13h0ZM87.64,37.19,78.05,27.6l2.76-2.76,9.59,9.59-2.76,2.76Zm-7,7L67,30.58l2.75-2.76L83.4,41.43l-2.76,2.76Zm-7,7L44.56,22.11l2.75-2.75L76.39,48.44l-2.75,2.75Z"/></svg>