<?xml version="1.0" encoding="iso-8859-1"?>
<!-- Generator: Adobe Illustrator 19.0.0, SVG Export Plug-In . SVG Version: 6.00 Build 0)  -->
<svg version="1.1" id="Capa_1" xmlns="http://www.w3.org/2000/svg" xmlns:xlink="http://www.w3.org/1999/xlink" x="0px" y="0px"
	 viewBox="0 0 512 512" style="enable-background:new 0 0 512 512;" xml:space="preserve">
<g>
	<g>
		<path d="M304,0h-32H16C7.168,0,0,7.2,0,16c0,8.864,7.168,16,16,16h16v58.976C32,129.44,46.976,165.6,74.176,192.8l31.2,31.2
			l-31.2,31.2C46.976,282.432,32,318.592,32,357.024V416H16c-8.832,0-16,7.168-16,16c0,8.832,7.168,16,16,16h31.936
			c0.032,0,0.064,0,0.064,0h0.064H187.2c8.832,0,16-7.168,16-16c0-8.832-7.168-16-16-16H64v-58.976c0-29.92,11.648-58.048,32.8-79.2
			l42.528-42.496C142.304,232.32,144,228.256,144,224c0-4.224-1.696-8.32-4.672-11.328L96.8,170.176
			c-21.152-21.152-32.8-49.28-32.8-79.2V32h192v58.88c0,29.536-11.936,58.432-32.736,79.264l-42.56,42.56
			c-6.24,6.24-6.24,16.384,0,22.624l25.28,25.28c3.104,3.104,7.2,4.672,11.296,4.672c4.096,0,8.192-1.568,11.328-4.672
			c6.24-6.24,6.24-16.384,0-22.624L214.624,224l31.264-31.264C272.64,165.984,288,128.832,288,90.88V32h16c8.832,0,16-7.168,16-16
			S312.832,0,304,0z"/>
	</g>
</g>
<g>
	<g>
		<path d="M208,64h-96c-8.832,0-16,7.168-16,16v10.976c0,21.344,8.32,41.44,23.424,56.576l29.28,29.28
			c2.976,2.976,7.072,4.672,11.296,4.672c4.256,0,8.32-1.696,11.328-4.704l29.248-29.28C215.68,132.448,224,112.352,224,90.976V80
			C224,71.168,216.832,64,208,64z M177.952,124.928L160,142.88l-17.952-17.952c-7.872-7.872-12.672-18.016-13.792-28.928h63.456
			C190.624,106.944,185.824,117.056,177.952,124.928z"/>
	</g>
</g>
<g>
	<g>
		<path d="M160,305.184l14.272,14.272c6.24,6.24,16.384,6.24,22.624,0s6.24-16.384,0-22.624l-25.6-25.6
			c-6.24-6.24-16.384-6.24-22.624,0l-29.12,29.12C104.384,315.552,96,335.712,96,357.12V368c0,8.832,7.168,16,16,16h64
			c8.832,0,16-7.168,16-16c0-8.832-7.168-16-16-16h-47.744c1.12-11.008,5.888-20.96,13.92-28.992L160,305.184z"/>
	</g>
</g>
<g>
	<g>
		<path d="M368,224c-79.392,0-144,64.608-144,144s64.608,144,144,144s144-64.608,144-144S447.392,224,368,224z M368,480
			c-61.76,0-112-50.24-112-112s50.24-112,112-112s112,50.24,112,112S429.76,480,368,480z"/>
	</g>
</g>
<g>
	<g>
		<path d="M427.328,404.704L384,361.376V304c0-8.832-7.168-16-16-16c-8.832,0-16,7.168-16,16v64c0,4.256,1.696,8.32,4.672,11.328
			l48,48C407.808,430.432,411.904,432,416,432s8.192-1.568,11.328-4.672C433.568,421.088,433.568,410.944,427.328,404.704z"/>
	</g>
</g>
<g>
</g>
<g>
</g>
<g>
</g>
<g>
</g>
<g>
</g>
<g>
</g>
<g>
</g>
<g>
</g>
<g>
</g>
<g>
</g>
<g>
</g>
<g>
</g>
<g>
</g>
<g>
</g>
<g>
</g>
</svg>
